<svg width="108" height="21" viewBox="0 0 108 21" fill="none" xmlns="http://www.w3.org/2000/svg">
<path d="M86.9545 16.7608H89.727V19.9743H83.5519V8.25438H81.2205V5.04084H83.5519V0.0630188L86.9545 0.0630188V5.04084L89.5379 5.04084V8.25438H86.9545V16.7608Z" fill="black"/>
<path d="M96.091 7.30922C97.0362 5.60794 98.6744 4.72579 100.565 4.72579C102.329 4.72579 103.778 5.54492 104.786 6.93116C105.921 8.44341 106.047 9.89265 106.047 11.6569V16.7608H108V19.9113L100.691 19.9113V16.7608L102.644 16.7608V12.5391C102.644 11.4679 102.707 10.3337 102.14 9.38856C101.51 8.4434 100.502 8.00234 99.4306 8.00234C98.4224 8.00234 97.4772 8.44341 96.8471 9.19954C96.091 10.1447 96.091 11.0899 96.091 12.161V16.6978H98.0443V19.8483H90.7351V16.6978H92.6884V3.15053L90.7351 3.15053V0L96.091 0V7.30922Z" fill="black"/>
<path d="M18.5881 0.0630188V3.21354L16.4457 3.21354L16.4457 13.1062C16.4457 15.1855 16.1307 16.8238 14.6184 18.3361C13.1692 19.7853 11.2789 20.3524 9.32555 20.3524C7.37223 20.3524 5.60793 19.9113 4.15869 18.5251C2.52042 16.9498 2.14236 15.1855 2.14236 12.9802L2.14236 3.21354L0 3.21354L0 0.0630188L7.8133 0.0630188L7.8133 3.21354L5.986 3.21354L5.986 12.6021C5.986 13.5473 5.986 14.5554 6.55309 15.3746C7.1832 16.3197 8.19136 16.7608 9.32555 16.7608C10.3337 16.7608 11.2789 16.3827 11.909 15.5636C12.6021 14.6815 12.6651 13.6103 12.6651 12.6021L12.6651 3.21354L10.8378 3.21354V0.0630188L18.5881 0.0630188Z" fill="black"/>
<path d="M20.0373 8.25437H18.084V5.10384L23.4399 5.10384V7.24619C24.3221 5.60792 26.0233 4.78879 27.8506 4.78879C29.4889 4.78879 31.0642 5.4819 32.1984 6.61609C33.4586 8.00232 33.4586 9.26253 33.4586 10.9638V16.7608L35.4119 16.7608V19.9113L28.1027 19.9113V16.7608H30.056V11.909C30.056 10.9638 30.056 10.0187 29.4889 9.26254C28.8588 8.4434 27.8506 8.06534 26.8425 8.06534C25.8343 8.06534 24.7631 8.50641 24.133 9.32555C23.5029 10.1447 23.5029 11.4679 23.5029 12.4761V16.8238H25.4562L25.4562 19.9743H18.084V16.8238H20.0373L20.0373 8.25437Z" fill="black"/>
<path d="M47.6359 11.1528C47.0688 9.01049 45.1155 7.62425 42.9101 7.62425C40.8938 7.62425 38.9405 9.19952 38.4994 11.1528L47.6359 11.1528ZM50.2194 15.5636C49.0222 18.399 46.2497 20.3524 43.1622 20.3524C38.7515 20.3524 35.2859 16.9498 35.2859 12.6021C35.2859 8.19134 38.6254 4.66275 43.0992 4.66275C45.1785 4.66275 47.2579 5.60792 48.7071 7.05716C50.2194 8.63242 50.7865 10.5227 50.7865 12.6021L50.6604 13.7993L38.5624 13.7993C39.0035 15.8786 40.8938 17.3909 43.0362 17.3909C44.5484 17.3909 45.8086 16.8238 46.6278 15.6266H50.2194V15.5636Z" fill="black"/>
<path d="M64.2707 12.4131C64.2707 9.95564 62.1914 8.00232 59.734 8.00232C57.1505 8.00232 55.1972 10.0817 55.1972 12.6021C55.1972 14.9965 57.2765 17.0128 59.6709 17.0128C62.2544 17.0128 64.2707 14.9965 64.2707 12.4131ZM64.2077 17.958C63.1365 19.5962 61.3722 20.3524 59.3559 20.3524C55.0712 20.3524 51.6686 16.8238 51.6686 12.6021C51.6686 8.25435 55.1342 4.66275 59.5449 4.66275C61.4982 4.66275 63.1365 5.5449 64.2077 7.18317V5.04082L69.5636 5.04082V8.19134H67.6733V16.6978L69.5636 16.6978V19.8483L64.2077 19.8483V17.958Z" fill="black"/>
<path d="M75.8016 7.62427C76.6838 5.85998 78.3851 4.97784 80.2754 4.91483V8.3804C79.2042 8.44341 78.196 8.69544 77.3139 9.45157C76.1797 10.3967 76.0537 11.5939 76.0537 12.9802V16.7608H78.007V19.9113H70.6978V16.7608H72.6511V8.25437H70.6978V5.10385L75.8016 5.10385V7.62427Z" fill="black"/>
</svg>
